Coordinates
version=1
nRows=33
nColumns=38
inDegrees=no

Units are S.I. units (second, meters, Newtons, ...)
If the header above contains a line with 'inDegrees', this indicates whether rotational values are in degrees (yes) or radians (no).

endheader
time	pelvis_tilt	pelvis_list	pelvis_rotation	pelvis_tx	pelvis_ty	pelvis_tz	hip_flexion_r	hip_adduction_r	hip_rotation_r	knee_angle_r	ankle_angle_r	subtalar_angle_r	mtp_angle_r	hip_flexion_l	hip_adduction_l	hip_rotation_l	knee_angle_l	ankle_angle_l	subtalar_angle_l	mtp_angle_l	lumbar_extension	lumbar_bending	lumbar_rotation	arm_flex_r	arm_add_r	arm_rot_r	elbow_flex_r	pro_sup_r	wrist_flex_r	wrist_dev_r	arm_flex_l	arm_add_l	arm_rot_l	elbow_flex_l	pro_sup_l	wrist_flex_l	wrist_dev_l
5.59	2.71315	1.5217	1.82835	0.721205	-0.434688	0.959575	0.0104072	-0.0325576	-0.18762	0	-0.0623821	0	0	0.199237	-0.138814	-0.0485408	0.591917	0.185634	0	0	-0.0248902	0.060678	-0.105099	-0.215363	-0.121466	-0.397261	0.446198	1.5708	0	0	-0.104784	-0.0670508	-0.188306	0.401376	1.43387	0	0
5.6	2.68403	1.52104	1.86762	0.720631	-0.434975	0.959663	0.00865822	-0.033145	-0.194302	0	-0.0609276	0	0	0.198319	-0.128826	-0.0582286	0.58103	0.193132	0	0	-0.0254671	0.0616017	-0.108862	-0.213698	-0.125237	-0.395233	0.446773	1.5708	0	0	-0.105447	-0.0652402	-0.183609	0.40342	1.43901	0	0
5.61	2.67491	1.52008	1.88553	0.720312	-0.435274	0.959807	0.00841743	-0.0332784	-0.19955	0	-0.0599954	0	0	0.196766	-0.119638	-0.0698529	0.568573	0.199755	0	0	-0.0255593	0.0598726	-0.124574	-0.19945	-0.132968	-0.372991	0.433323	1.5708	0	0	-0.116339	-0.061997	-0.1953	0.416392	1.44027	0	0
5.62	2.64623	1.51965	1.92342	0.719836	-0.435617	0.959913	0.00699543	-0.0339815	-0.205664	0	-0.0583045	0	0	0.193184	-0.110269	-0.083206	0.554168	0.20524	0	0	-0.0259445	0.0606802	-0.126969	-0.196845	-0.136136	-0.372677	0.430905	1.5708	0	0	-0.116093	-0.0607453	-0.188637	0.415881	1.44818	0	0
5.63	2.59114	1.52002	1.98788	0.719196	-0.436016	0.960022	0.00392254	-0.0354185	-0.212828	0	-0.0557216	0	0	0.18723	-0.100674	-0.0981597	0.538673	0.209239	0	0	-0.0265626	0.0632205	-0.117195	-0.204724	-0.134283	-0.397043	0.439774	1.5708	0	0	-0.108268	-0.0634958	-0.147574	0.408002	1.43105	0	0
5.64	2.56058	1.51962	2.02627	0.718744	-0.436451	0.960146	0.00287245	-0.0363483	-0.219041	0.00156453	-0.0534087	0	0	0.181789	-0.0923064	-0.114972	0.52294	0.212676	0	0	-0.0268007	0.0636853	-0.118902	-0.201513	-0.136475	-0.397294	0.434994	1.5708	0	0	-0.109587	-0.063218	-0.135577	0.409585	1.43002	0	0
5.65	2.53222	1.51903	2.06234	0.718363	-0.436885	0.960263	0.00223735	-0.0374036	-0.225227	0.00395395	-0.0510203	0	0	0.175824	-0.084064	-0.131681	0.506272	0.215661	0	0	-0.0266843	0.0640344	-0.120342	-0.198318	-0.138233	-0.397984	0.430047	1.5708	0	0	-0.110769	-0.0632466	-0.122972	0.410862	1.42875	0	0
5.66	2.51363	1.51829	2.08858	0.718049	-0.437336	0.960334	0.00194806	-0.0381479	-0.230706	0.00625985	-0.0491239	0	0	0.169718	-0.0762391	-0.147195	0.489093	0.218752	0	0	-0.0261081	0.064646	-0.122058	-0.195519	-0.139779	-0.39784	0.427369	1.5708	0	0	-0.111078	-0.0615996	-0.12299	0.409601	1.44909	0	0
5.67	2.45267	1.52956	2.14985	0.715175	-0.438682	0.961338	-0.0150425	-0.0292623	-0.228901	0	-0.0518335	0	0	0.143791	-0.0766751	-0.163766	0.46327	0.222358	0	0	-0.0366353	0.0665852	-0.115959	-0.191594	-0.135988	-0.40555	0.42139	1.5708	0	0	-0.117575	-0.0688856	-0.0901273	0.421629	1.41341	0	0
5.68	2.43406	1.5286	2.17661	0.715024	-0.439074	0.961371	-0.0148255	-0.0300186	-0.235896	0.00275164	-0.0494325	0	0	0.137425	-0.0687206	-0.176094	0.444837	0.224321	0	0	-0.0356133	0.066722	-0.118345	-0.187973	-0.13644	-0.407426	0.418524	1.5708	0	0	-0.119952	-0.0703637	-0.0735265	0.425744	1.40906	0	0
5.69	2.43484	1.5265	2.18384	0.714948	-0.439416	0.96129	-0.012858	-0.0308519	-0.244079	0.00570381	-0.0465787	0	0	0.132874	-0.0608645	-0.187607	0.426966	0.225282	0	0	-0.0329041	0.0667042	-0.1208	-0.184696	-0.136604	-0.407845	0.415298	1.5708	0	0	-0.122014	-0.071636	-0.0592424	0.428545	1.4081	0	0
5.7	2.43828	1.51586	2.19488	0.717406	-0.438954	0.960611	-0.000804991	-0.0411947	-0.255721	0.0135293	-0.0414961	0	0	0.140722	-0.0445823	-0.196602	0.413177	0.223829	0	0	-0.0238852	0.0646159	-0.12916	-0.181388	-0.139867	-0.408267	0.414013	1.5708	0	0	-0.121538	-0.0689085	-0.0462622	0.429611	1.4081	0	0
5.71	2.41604	1.51568	2.22403	0.717364	-0.439436	0.96072	-0.00251834	-0.0418331	-0.261031	0.0145855	-0.0400675	0	0	0.132045	-0.0371365	-0.207865	0.392966	0.222179	0	0	-0.0236509	0.0643686	-0.130302	-0.17826	-0.139089	-0.409812	0.411261	1.5708	0	0	-0.123666	-0.0705231	-0.0306497	0.433458	1.4071	0	0
5.72	2.40361	1.51519	2.24271	0.717327	-0.439972	0.960773	-0.00376822	-0.0421603	-0.265537	0.0152757	-0.0389489	0	0	0.123688	-0.0304411	-0.219407	0.372769	0.219131	0	0	-0.0225916	0.0642878	-0.131209	-0.175637	-0.138209	-0.410038	0.410211	1.5708	0	0	-0.124724	-0.070468	-0.0257321	0.433592	1.42603	0	0
5.73	2.33078	1.525	2.31443	0.714833	-0.441419	0.961636	-0.0195177	-0.033227	-0.263798	0.00815464	-0.0415394	0	0	0.0982646	-0.0317444	-0.234742	0.344797	0.213688	0	0	-0.0308709	0.0654365	-0.124223	-0.172505	-0.132598	-0.415016	0.404976	1.5708	0	0	-0.129999	-0.0787313	0.00559276	0.443081	1.40439	0	0
5.74	2.34973	1.51525	2.30747	0.717311	-0.441159	0.961012	-0.00914132	-0.0433586	-0.273421	0.0147768	-0.037107	0	0	0.102921	-0.0171782	-0.244853	0.328513	0.205537	0	0	-0.022052	0.062906	-0.13022	-0.169898	-0.134792	-0.414016	0.40421	1.5708	0	0	-0.128876	-0.0758383	0.0174287	0.441937	1.40716	0	0
5.75	2.34548	1.51481	2.31707	0.717412	-0.441733	0.961005	-0.0102848	-0.0434316	-0.277642	0.0149314	-0.0360599	0	0	0.0942645	-0.0114957	-0.255957	0.30746	0.196593	0	0	-0.0203864	0.0628252	-0.130533	-0.167088	-0.133373	-0.412355	0.402048	1.5708	0	0	-0.129988	-0.0751723	0.0204332	0.441922	1.4204	0	0
5.76	2.27837	1.52394	2.38313	0.715163	-0.443152	0.961716	-0.0246303	-0.034457	-0.276518	0.00836746	-0.0382808	0	0	0.0697875	-0.012892	-0.266418	0.279002	0.183091	0	0	-0.0275904	0.0642515	-0.123933	-0.163479	-0.127274	-0.415998	0.396071	1.5708	0	0	-0.134308	-0.0817187	0.0430737	0.449255	1.40344	0	0
5.77	2.32042	1.51467	2.35258	0.717661	-0.442906	0.960976	-0.0141421	-0.0438192	-0.285554	0.0148666	-0.033801	0	0	0.0738211	0.0010539	-0.268259	0.261885	0.165943	0	0	-0.0183244	0.062044	-0.129706	-0.16074	-0.128402	-0.415272	0.396266	1.5708	0	0	-0.132682	-0.0790406	0.0566707	0.446843	1.402	0	0
5.78	2.32707	1.51504	2.3512	0.717783	-0.443476	0.960857	-0.0156423	-0.0427407	-0.289253	0.0146138	-0.0325665	0	0	0.064146	0.00548491	-0.267289	0.23981	0.148385	0	0	-0.0166682	0.0624161	-0.130456	-0.15757	-0.12587	-0.412872	0.393682	1.5708	0	0	-0.133694	-0.0802764	0.0700051	0.44752	1.39741	0	0
5.79	2.34513	1.51571	2.33788	0.717839	-0.444011	0.96069	-0.0165819	-0.0409192	-0.292146	0.0147021	-0.0312206	0	0	0.0560609	0.00736231	-0.264951	0.221828	0.135666	0	0	-0.0146383	0.0631243	-0.131049	-0.154733	-0.123135	-0.409491	0.392953	1.5708	0	0	-0.134705	-0.0807775	0.0786895	0.447784	1.39275	0	0
5.8	2.35156	1.51705	2.33663	0.717927	-0.444524	0.960602	-0.0183314	-0.0391952	-0.296004	0.0154631	-0.0294934	0	0	0.0484731	0.00790725	-0.25993	0.207767	0.127375	0	0	-0.0136658	0.0635433	-0.132519	-0.150219	-0.11997	-0.407297	0.388426	1.5708	0	0	-0.13501	-0.0805914	0.0815686	0.44607	1.40297	0	0
5.81	2.35958	1.51835	2.33371	0.717981	-0.445013	0.960495	-0.0197821	-0.0374652	-0.299289	0.0165994	-0.0277848	0	0	0.0436506	0.00673082	-0.25427	0.199811	0.12308	0	0	-0.0126596	0.0637359	-0.134048	-0.145522	-0.116364	-0.404705	0.383289	1.5708	0	0	-0.135467	-0.0807991	0.0859765	0.444792	1.39986	0	0
5.82	2.36324	1.51958	2.33453	0.717954	-0.445538	0.960421	-0.0213284	-0.0359512	-0.301688	0.0177407	-0.0262818	0	0	0.0400499	0.00450132	-0.246845	0.19521	0.119371	0	0	-0.0118254	0.0633837	-0.135274	-0.140099	-0.112085	-0.40384	0.378941	1.5708	0	0	-0.135473	-0.0812381	0.0898463	0.442139	1.39587	0	0
5.83	2.3568	1.52089	2.34469	0.717949	-0.44612	0.960381	-0.02367	-0.0347702	-0.303481	0.0180616	-0.0252724	0	0	0.0365922	0.00278719	-0.239432	0.191302	0.114483	0	0	-0.0113211	0.062709	-0.135536	-0.135124	-0.107805	-0.402821	0.374966	1.5708	0	0	-0.134985	-0.0812447	0.0916467	0.438752	1.39174	0	0
5.84	2.28586	1.52066	2.41731	0.717591	-0.446624	0.960795	-0.0270259	-0.0368741	-0.304191	0.0181882	-0.0248123	0	0	0.0287394	0.0030648	-0.218175	0.175501	0.0974505	0	0	-0.0123709	0.0576144	-0.134081	-0.129606	-0.101942	-0.400668	0.370028	1.5708	0	0	-0.133878	-0.0822955	0.0913406	0.434614	1.38785	0	0
5.85	2.37184	1.52193	2.33386	0.717985	-0.44724	0.960176	-0.0252137	-0.032749	-0.306094	0.0190776	-0.0233111	0	0	0.0349363	0.000264959	-0.230849	0.188973	0.108431	0	0	-0.00744137	0.0614797	-0.133134	-0.127662	-0.0998496	-0.397753	0.369992	1.5708	0	0	-0.133289	-0.0792718	0.0882821	0.429245	1.38205	0	0
5.86	2.35966	1.52234	2.34659	0.717909	-0.447844	0.960216	-0.0263316	-0.0326142	-0.307256	0.0198721	-0.0223535	0	0	0.0322459	0.000618211	-0.228564	0.185962	0.105677	0	0	-0.00626997	0.0599549	-0.130498	-0.12398	-0.0953147	-0.395825	0.367448	1.5708	0	0	-0.132123	-0.0784379	0.0850426	0.424323	1.38041	0	0
5.87	2.34244	1.52251	2.36345	0.717745	-0.448486	0.960302	-0.0276631	-0.032664	-0.307991	0.0198843	-0.0217421	0	0	0.0282804	0.00196728	-0.227923	0.180849	0.102346	0	0	-0.00485706	0.0580262	-0.126841	-0.120634	-0.0906437	-0.393207	0.364803	1.5708	0	0	-0.130935	-0.0783117	0.0840065	0.420528	1.37894	0	0
5.88	2.31281	1.52303	2.39219	0.717563	-0.449212	0.960464	-0.0304871	-0.0326697	-0.307529	0.0183959	-0.021775	0	0	0.0213751	0.00442135	-0.227685	0.171534	0.0971138	0	0	-0.00408554	0.0559418	-0.123311	-0.116998	-0.086264	-0.389141	0.361581	1.5708	0	0	-0.129765	-0.0780541	0.0819373	0.416433	1.37625	0	0
5.89	2.26634	1.52417	2.43782	0.71744	-0.450056	0.960708	-0.0350915	-0.0326227	-0.306393	0.0159841	-0.0221976	0	0	0.0115496	0.00779539	-0.227134	0.15864	0.0903023	0	0	-0.00422974	0.0537874	-0.119712	-0.113751	-0.0821264	-0.384413	0.358479	1.5708	0	0	-0.128589	-0.0772974	0.0772161	0.412499	1.37518	0	0
5.9	2.21671	1.52546	2.4866	0.717316	-0.450925	0.960944	-0.0399717	-0.0324212	-0.305603	0.0136589	-0.0225417	0	0	0.00064408	0.011297	-0.225802	0.14408	0.0833669	0	0	-0.00453535	0.0517143	-0.115953	-0.110798	-0.0781544	-0.379003	0.355693	1.5708	0	0	-0.127338	-0.0762161	0.070621	0.408714	1.37662	0	0
5.91	2.17997	1.52666	2.52264	0.717209	-0.451757	0.961101	-0.0442338	-0.0317867	-0.30515	0.0112911	-0.0229721	0	0	-0.00942894	0.0142513	-0.224003	0.129953	0.0769973	0	0	-0.00437062	0.0500925	-0.112954	-0.10753	-0.0747213	-0.371982	0.353002	1.5708	0	0	-0.125644	-0.0755975	0.0667827	0.404059	1.37915	0	0
